<svg xmlns="http://www.w3.org/2000/svg" xmlns:xlink="http://www.w3.org/1999/xlink" viewBox="0,0,256,256" width="50px" height="50px" fill-rule="nonzero"><g fill="#6b7280" fill-rule="nonzero" stroke="none" stroke-width="1" stroke-linecap="butt" stroke-linejoin="miter" stroke-miterlimit="10" stroke-dasharray="" stroke-dashoffset="0" font-family="none" font-weight="none" font-size="none" text-anchor="none" style="mix-blend-mode: normal"><g transform="scale(5.12,5.12)"><path d="M6,4c-1.09375,0 -2,0.90625 -2,2v38c0,1.09375 0.90625,2 2,2h38c1.09375,0 2,-0.90625 2,-2v-38c0,-1.09375 -0.90625,-2 -2,-2zM6,6h38v38h-38zM39.98047,8.99219c-0.03906,0 -0.07422,0.00391 -0.10937,0.00781h-14.87109c-0.35937,-0.00391 -0.69531,0.18359 -0.87891,0.49609c-0.17969,0.3125 -0.17969,0.69531 0,1.00781c0.18359,0.3125 0.51953,0.5 0.87891,0.49609h12.58594l-21.29297,21.29297c-0.26172,0.25 -0.36719,0.625 -0.27344,0.97266c0.08984,0.35156 0.36328,0.625 0.71484,0.71484c0.34766,0.09375 0.72266,-0.01172 0.97266,-0.27344l21.29297,-21.29297v12.58594c-0.00391,0.35938 0.18359,0.69531 0.49609,0.87891c0.3125,0.17969 0.69531,0.17969 1.00781,0c0.3125,-0.18359 0.5,-0.51953 0.49609,-0.87891v-14.875c0.03906,-0.28906 -0.05078,-0.58203 -0.24609,-0.80469c-0.19531,-0.21875 -0.48047,-0.33984 -0.77344,-0.32812z"></path></g></g></svg>