<svg xmlns="http://www.w3.org/2000/svg" xmlns:xlink="http://www.w3.org/1999/xlink" viewBox="0,0,256,256" width="50px" height="50px" fill-rule="nonzero"><g fill="#6b7280" fill-rule="nonzero" stroke="none" stroke-width="1" stroke-linecap="butt" stroke-linejoin="miter" stroke-miterlimit="10" stroke-dasharray="" stroke-dashoffset="0" font-family="none" font-weight="none" font-size="none" text-anchor="none" style="mix-blend-mode: normal"><g transform="scale(2.56,2.56)"><path d="M66.81055,18.42188c-2.15876,0.05393 -4.4976,0.56556 -6.91211,1.78516c-8.30889,4.19691 -10.29577,12.82122 -10.77148,16.85547c-4.3555,-0.34278 -19.24719,-2.31697 -27.45898,-14.62109c-0.38272,-0.57282 -1.03329,-0.90837 -1.72191,-0.88813c-0.68862,0.02024 -1.31835,0.39343 -1.66677,0.98774c-3.1814,5.42527 -2.15552,11.28328 -0.46484,15.54492c0.45741,1.15299 0.95669,1.89265 1.46094,2.82422l-5.69141,-1.4668c-0.68059,-0.17493 -1.40305,0.02012 -1.90313,0.5138c-0.50008,0.49368 -0.70442,1.21357 -0.53827,1.89636c0,0 2.59828,10.61621 11.21484,15.49609c-1.69192,0.37129 -2.79492,0.5 -2.79492,0.5c-0.65402,0.03224 -1.25085,0.38256 -1.59783,0.93789c-0.34698,0.55533 -0.40017,1.24533 -0.1424,1.84727c0,0 1.03154,2.29187 3.74219,4.66797c2.03738,1.78593 5.07521,3.7277 9.4375,5.19531c-2.8042,1.28993 -5.93744,2.21634 -8.72266,2.77148c-4.20933,0.839 -7.4668,0.96875 -7.4668,0.96875c-0.8901,0.03618 -1.649,0.65664 -1.86133,1.52181c-0.21233,0.86516 0.17309,1.76647 0.94531,2.21062c0,0 26.3018,15.0433 51.71289,-1.74414c12.62643,-8.34145 17.54487,-18.44271 19.14453,-26.41016c1.34517,-6.69993 0.47555,-11.17602 0.13477,-12.69531l8.26953,-7.92773c0.64804,-0.62263 0.80126,-1.60103 0.3746,-2.39197c-0.42666,-0.79094 -1.32845,-1.20022 -2.20468,-1.00061l-4.04297,0.92578l3.65039,-3.85352c0.62985,-0.66651 0.72579,-1.67595 0.23277,-2.44917c-0.49302,-0.77322 -1.44869,-1.11215 -2.31871,-0.82232l-10.22266,3.41406c-0.88966,-0.82259 -2.2864,-1.98019 -4.60156,-3.06055c-1.74257,-0.81316 -3.89495,-1.44721 -6.30078,-1.5293c-0.30073,-0.01026 -0.60567,-0.01161 -0.91406,-0.00391zM67.17773,22.38867l-1.32031,3.48633c-0.14087,0.33701 -0.08681,0.72401 0.14103,1.00951c0.22783,0.2855 0.59319,0.42409 0.95306,0.3615c0.35986,-0.06258 0.65699,-0.31638 0.77506,-0.66203l1.51953,-4.01172c0.74044,0.14047 1.44337,0.34132 2.09961,0.5918l-1.54297,2.49609c-0.19893,0.30419 -0.21717,0.69236 -0.04763,1.01387c0.16954,0.3215 0.50015,0.52572 0.86353,0.53339c0.36338,0.00767 0.70232,-0.18241 0.88527,-0.49647l1.66992,-2.70117c0.71371,0.39034 1.32639,0.79719 1.83398,1.17578l-1.85156,1.95508c-0.25964,0.25668 -0.35879,0.63445 -0.25864,0.98554c0.10014,0.3511 0.38365,0.61973 0.73963,0.70081c0.35598,0.08108 0.72786,-0.03826 0.97018,-0.31135l1.91992,-2.02734c0.04066,0.04233 0.13281,0.13477 0.13281,0.13477c0.53245,0.59104 1.36453,0.81037 2.11914,0.55859l3.75,-1.25195l-2.69727,2.8457c-0.60526,0.6402 -0.72037,1.60103 -0.28346,2.36608c0.43691,0.76505 1.32295,1.15414 2.18189,0.95814l3.4375,-0.78711l-3.78906,3.63281c-0.53264,0.51016 -0.74132,1.27205 -0.54297,1.98242c0,0 1.41818,5.01851 -0.00391,12.10156c-0.7072,3.52239 -2.10544,7.51371 -4.78125,11.5957l-4.91992,-0.6875c-0.06591,-0.00989 -0.13265,-0.01316 -0.19922,-0.00977c-0.51589,0.02789 -0.92562,0.44413 -0.94538,0.96039c-0.01976,0.51626 0.35696,0.9626 0.86921,1.02984l3.90039,0.54492c-0.55821,0.74505 -1.17016,1.49136 -1.82227,2.23633l-5.92773,-1.95703c-0.09438,-0.03276 -0.19313,-0.05119 -0.29297,-0.05469c-0.49932,-0.0162 -0.934,0.33857 -1.01821,0.831c-0.08421,0.49244 0.2079,0.97148 0.68423,1.12212l5.0625,1.67188c-0.75441,0.77282 -1.55807,1.54057 -2.42773,2.30469l-6.05078,-4.19336c-0.16392,-0.11685 -0.35928,-0.18152 -0.56055,-0.18555c-0.44376,-0.00908 -0.84041,0.2754 -0.97411,0.69863c-0.1337,0.42323 0.02754,0.88395 0.39598,1.13145l5.60938,3.88477c-1.23413,0.99256 -2.57285,1.97337 -4.0293,2.93555c-3.02527,1.9986 -6.05468,3.50738 -9.03711,4.62109l-1.57227,-2.15039c-0.197,-0.27736 -0.52148,-0.43556 -0.86133,-0.41992c-0.37029,0.01698 -0.70083,0.23737 -0.85886,0.57268c-0.15803,0.33531 -0.11764,0.73052 0.10495,1.02693l1.20703,1.65039c-0.58688,0.18688 -1.17003,0.3595 -1.75195,0.51758l-2.37109,-3.3457c-0.19312,-0.28135 -0.51636,-0.44481 -0.85742,-0.43359c-0.37068,0.01185 -0.70437,0.22785 -0.86694,0.56119c-0.16257,0.33334 -0.12734,0.72927 0.09155,1.02866l1.91797,2.70508c-0.66051,0.14406 -1.3152,0.2646 -1.9668,0.375l-1.0625,-2.63086c-0.14909,-0.38467 -0.51909,-0.63831 -0.93164,-0.63867c-0.33555,-0.00077 -0.64912,0.16678 -0.83498,0.44615c-0.18586,0.27937 -0.21922,0.63333 -0.08885,0.94252l0.87305,2.16016c-2.19644,0.26449 -4.32923,0.36095 -6.375,0.31445l0.88867,-3.56641c0.0775,-0.29485 0.01629,-0.60895 -0.16627,-0.85311c-0.18255,-0.24416 -0.46651,-0.39173 -0.77123,-0.4008c-0.47482,-0.01341 -0.89356,0.30901 -1.00195,0.77148l-0.98633,3.95703c-0.5043,-0.03343 -1.00844,-0.06527 -1.5,-0.11328l0.9375,-2.1582c0.14043,-0.31059 0.113,-0.67133 -0.07278,-0.95712c-0.18578,-0.28579 -0.50433,-0.45727 -0.84519,-0.45499c-0.40108,0.00284 -0.76167,0.24502 -0.91602,0.61523l-1.17969,2.71289c-0.92177,-0.12959 -1.80748,-0.286 -2.67187,-0.45508l0.56445,-0.74609c0.23047,-0.29646 0.27545,-0.69703 0.11647,-1.03723c-0.15898,-0.34019 -0.49512,-0.56266 -0.87038,-0.57606c-0.32983,-0.01145 -0.64407,0.14056 -0.83984,0.40625l-1.125,1.48633c-1.96402,-0.47092 -3.74702,-1.01124 -5.28516,-1.55078c0.33578,-0.06069 0.27473,-0.01065 0.62305,-0.08008c4.52292,-0.9015 10.08256,-2.51776 14.33203,-5.78906c0.6204,-0.477 0.90564,-1.27199 0.73,-2.03459c-0.17563,-0.76261 -0.77987,-1.35275 -1.54641,-1.51033c-0.53876,-0.11065 -1.03291,-0.2372 -1.53516,-0.36133l2.63281,-1.91992c0.35201,-0.24888 0.50492,-0.69532 0.37942,-1.10776c-0.1255,-0.41243 -0.50118,-0.69803 -0.93215,-0.70865c-0.22504,-0.00519 -0.44524,0.06569 -0.625,0.20117l-3.9043,2.8457c-0.56903,-0.18451 -1.1028,-0.37737 -1.61719,-0.57617l1.47266,-0.49414c0.46227,-0.14937 0.75034,-0.60934 0.68292,-1.09045c-0.06742,-0.48111 -0.47083,-0.84417 -0.95636,-0.86072c-0.12355,-0.00373 -0.24673,0.01547 -0.36328,0.05664l-3.52734,1.18164c-1.74468,-0.9062 -3.08881,-1.85788 -4.08203,-2.72852c-0.50134,-0.43947 -0.65468,-0.70276 -0.99414,-1.07031c1.62229,-0.35254 3.58183,-0.83304 6.03516,-1.81641c0.83094,-0.333 1.33944,-1.17756 1.24497,-2.06774c-0.09447,-0.89018 -0.7689,-1.6092 -1.65122,-1.76039c-7.12679,-1.21836 -10.75216,-7.35009 -12.4668,-11.28906l2.69336,0.69336l1.08008,3.58203c0.09571,0.35094 0.37442,0.62225 0.72782,0.70847c0.3534,0.08622 0.72574,-0.02624 0.97231,-0.29368c0.24658,-0.26744 0.3285,-0.64767 0.21393,-0.99291l-0.73047,-2.42187l1.50195,0.38672l2.04883,3.68164c0.16592,0.32675 0.49725,0.53659 0.86357,0.54691c0.36632,0.01032 0.70894,-0.18054 0.89298,-0.49743c0.18404,-0.31689 0.18003,-0.70907 -0.01046,-1.02213l-1.75195,-3.15039c0.75975,-0.71963 0.83639,-1.90325 0.17578,-2.71484c0,0 -2.07284,-2.55369 -3.51367,-6.18555c-1.11159,-2.80197 -1.75409,-6.05661 -0.92578,-9.24414c5.53512,6.5782 12.8266,10.02099 18.88086,11.83789l-1.08984,4.62305c-0.0821,0.34789 0.02767,0.71314 0.28794,0.95814c0.26027,0.245 0.6315,0.3325 0.97379,0.22953c0.34229,-0.10297 0.60363,-0.38075 0.68554,-0.72868l1.07031,-4.54492c0.48018,0.12336 0.94988,0.24215 1.40625,0.3457l-1.41602,5.10547c-0.09901,0.34558 -0.00492,0.71772 0.24644,0.97472c0.25136,0.257 0.62131,0.35933 0.969,0.26802c0.3477,-0.09131 0.61964,-0.3622 0.71229,-0.70954l1.45117,-5.23242c3.68377,0.68564 6.16602,0.73438 6.16602,0.73438c0.83655,0.00974 1.59079,-0.50217 1.89063,-1.2832l3.77734,2.11328c0.31192,0.17458 0.69329,0.16945 1.00041,-0.01345c0.30711,-0.1829 0.49329,-0.51579 0.48837,-0.87321c-0.00492,-0.35742 -0.20018,-0.68505 -0.51221,-0.85944l-4.51367,-2.52539c0.07102,-0.6786 0.18873,-1.50828 0.41602,-2.52539l3.44336,2.26758c0.29828,0.20838 0.68619,0.23831 1.01291,0.07818c0.32672,-0.16014 0.54069,-0.48508 0.55871,-0.84849c0.01802,-0.36341 -0.16274,-0.70793 -0.47201,-0.89961l-3.99023,-2.62891c1.08448,-3.32989 3.26382,-7.23643 7.65234,-9.45312c1.99879,-1.00961 3.81864,-1.38213 5.47461,-1.38867zM71.0332,42.19922c-0.38958,0.00956 -0.75475,0.24806 -0.90625,0.63281c-0.203,0.513 0.0495,1.09488 0.5625,1.29688c0.513,0.203 1.09387,-0.0495 1.29688,-0.5625c0.203,-0.513 -0.0495,-1.09488 -0.5625,-1.29687c-0.12825,-0.05075 -0.26077,-0.0735 -0.39062,-0.07031zM71.4043,49.80078c-0.38934,0.00956 -0.75595,0.24806 -0.9082,0.63281c-0.203,0.513 0.05145,1.09488 0.56445,1.29688c0.514,0.203 1.09488,-0.0495 1.29688,-0.5625c0.203,-0.513 -0.0495,-1.09683 -0.5625,-1.29883c-0.12825,-0.05075 -0.26084,-0.07155 -0.39062,-0.06836zM61.36133,50.40625c-0.38958,0.00933 -0.75475,0.24731 -0.90625,0.63281c-0.203,0.513 0.0495,1.09488 0.5625,1.29688c0.513,0.203 1.09387,-0.0495 1.29688,-0.5625c0.203,-0.513 -0.0495,-1.09387 -0.5625,-1.29688c-0.12825,-0.05075 -0.26077,-0.07342 -0.39062,-0.07031z"></path></g></g></svg>